<svg xmlns="http://www.w3.org/2000/svg" width="18.234" height="18.234" viewBox="0 0 18.234 18.234" id="icon-copy"><path d="M10.838,19.2h7.6a3.8,3.8,0,0,0,3.8-3.8V7.8a3.8,3.8,0,0,0-3.8-3.8h-7.6a3.8,3.8,0,0,0-3.8,3.8v7.6A3.8,3.8,0,0,0,10.838,19.2Zm7.6-13.676A2.276,2.276,0,0,1,20.715,7.8v7.6a2.276,2.276,0,0,1-2.279,2.279h-7.6A2.276,2.276,0,0,1,8.559,15.4V7.8A2.276,2.276,0,0,1,10.838,5.52ZM4,18.436V8.559a.76.76,0,0,1,1.52,0v9.877A2.276,2.276,0,0,0,7.8,20.715h9.877a.76.76,0,0,1,0,1.52H7.8A3.8,3.8,0,0,1,4,18.436Z" transform="translate(-4 -4)"/></svg>
