<svg width="16" height="16" viewBox="0 0 32 32" xmlns="http://www.w3.org/2000/svg" id="external-link">
<path d="M8.00065 7.33301C7.63246 7.33301 7.33398 7.63148 7.33398 7.99967V23.9997C7.33398 24.3679 7.63246 24.6663 8.00065 24.6663H24.0007C24.3688 24.6663 24.6673 24.3679 24.6673 23.9997V18.9997C24.6673 18.4474 25.115 17.9997 25.6673 17.9997C26.2196 17.9997 26.6673 18.4474 26.6673 18.9997V23.9997C26.6673 25.4724 25.4734 26.6663 24.0007 26.6663H8.00065C6.52789 26.6663 5.33398 25.4724 5.33398 23.9997V7.99967C5.33398 6.52692 6.52789 5.33301 8.00065 5.33301H13.0007C13.5529 5.33301 14.0007 5.78072 14.0007 6.33301C14.0007 6.88529 13.5529 7.33301 13.0007 7.33301H8.00065Z"/>
<path d="M19.0007 5.33301H24.0007C25.4734 5.33301 26.6673 6.52692 26.6673 7.99967L26.6673 12.9997C26.6673 13.552 26.2196 13.9997 25.6673 13.9997C25.115 13.9997 24.6673 13.552 24.6673 12.9997L24.6673 8.74722L17.3744 16.0401C16.9839 16.4306 16.3507 16.4306 15.9602 16.0401C15.5697 15.6496 15.5697 15.0164 15.9602 14.6259L23.2531 7.33301L19.0007 7.33301C18.4484 7.33301 18.0007 6.88529 18.0007 6.33301C18.0007 5.78072 18.4484 5.33301 19.0007 5.33301Z"/>
</svg>
