<svg xmlns="http://www.w3.org/2000/svg" width="54" height="54" viewBox="0 0 54 54" id="form_icon"><defs></defs><path class="a" d="M41.484,20.15H12.865a2.125,2.125,0,0,0-2.125,2.125v3.931a2.125,2.125,0,0,0,2.125,2.125H41.484a2.125,2.125,0,0,0,2.125-2.125V22.275A2.125,2.125,0,0,0,41.484,20.15ZM12.865,26.205V22.275H41.484v3.931Z" transform="translate(-6.225 -1.517)"/><path class="a" d="M41.484,30H12.865a2.125,2.125,0,0,0-2.125,2.125v3.931a2.125,2.125,0,0,0,2.125,2.125H41.484a2.125,2.125,0,0,0,2.125-2.125V32.125A2.125,2.125,0,0,0,41.484,30Zm0,6.055H12.865V32.125H41.484Zm0,1.062V36.055h0Z" transform="translate(-6.225 0.352)"/><rect class="a" width="23.127" height="6.055" rx="1" transform="translate(11.574 42.431)"/><path class="a" d="M60.49,16.059a8.125,8.125,0,0,0-7.037-7.97V6.827A2.36,2.36,0,0,0,51.071,4.49H8.871A2.36,2.36,0,0,0,6.49,6.827V56.153A2.36,2.36,0,0,0,8.871,58.49h42.2a2.36,2.36,0,0,0,2.381-2.337V24.04A8.125,8.125,0,0,0,60.49,16.059ZM8.871,56.153V6.827h42.2V8.089a8.042,8.042,0,0,0,0,15.951V56.153ZM52.262,21.8a5.739,5.739,0,1,1,5.847-5.738A5.793,5.793,0,0,1,52.262,21.8Z" transform="translate(-6.49 -4.49)"/><path class="a" d="M48.621,12.208a1.062,1.062,0,0,0-1.5,0l-2.305,2.433L43.5,13.579a1.062,1.062,0,0,0-1.328,1.657L44.3,16.893a1.062,1.062,0,0,0,1.434-.1l2.985-3.134a1.062,1.062,0,0,0-.1-1.455Z" transform="translate(1.533 -3.147)"/><path class="a" d="M11.8,15.515H28.917a1.062,1.062,0,0,0,0-2.125H11.8a1.062,1.062,0,0,0,0,2.125Z" transform="translate(-6.225 -2.947)"/></svg>
