<svg xmlns="http://www.w3.org/2000/svg" width="18.548" height="20" viewBox="0 0 18.548 20" id="high-value-data-from-ec">
  <g transform="translate(-0.377 -0.001)">
    <path
      d="M0,17.256V2.744C0,.942,3.255,0,6.472,0s6.474.942,6.474,2.744v1.4A6.9,6.9,0,0,0,9.458,5.193a14.592,14.592,0,0,1-2.985.3,11.192,11.192,0,0,1-5.307-1.1V6.4a1,1,0,0,1,.02.148c0,.232.42.637,1.342.975a11.977,11.977,0,0,0,3.735.6l.23,0c.095,0,.224,0,.375-.01a6.787,6.787,0,0,0-.43,1.181A11.1,11.1,0,0,1,1.166,8.174v2.014c0,.234.42.639,1.342.975a11.967,11.967,0,0,0,3.737.6,7.059,7.059,0,0,0,.224,1.169,11.151,11.151,0,0,1-5.263-1.082l-.04-.023V13.77a.541.541,0,0,1,.02.148c0,.233.42.639,1.342.976a11.979,11.979,0,0,0,3.733.6l.233,0c.424,0,.852-.026,1.274-.064a6.961,6.961,0,0,0,1.077,1.057,15.2,15.2,0,0,1-2.353.176,11.138,11.138,0,0,1-5.327-1.114v1.71c0,.233.42.638,1.342.976a11.984,11.984,0,0,0,3.734.6l.23,0,.233,0a11.979,11.979,0,0,0,3.733-.6,4.032,4.032,0,0,0,.958-.484,6.93,6.93,0,0,0,1.369.208,3.867,3.867,0,0,1-2.379,1.526A14.013,14.013,0,0,1,6.473,20C3.256,20,0,19.058,0,17.256ZM6.7,4.319a11.962,11.962,0,0,0,3.736-.6c.922-.338,1.342-.743,1.342-.976s-.42-.638-1.342-.977a11.979,11.979,0,0,0-3.733-.6l-.233,0-.23,0a11.98,11.98,0,0,0-3.734.6c-.922.338-1.342.743-1.342.977s.42.638,1.342.976a11.955,11.955,0,0,0,3.734.6l.23,0Zm3.08,9.6a2,2,0,0,1-.609-1.545V8.7H10.38v3.5a1.471,1.471,0,0,0,.266.969,1.108,1.108,0,0,0,.879.309,1.079,1.079,0,0,0,.861-.311,1.475,1.475,0,0,0,.267-.975V8.7H13.86v3.7a2.128,2.128,0,0,1-.283,1.109,1.846,1.846,0,0,1-.818.731,2.933,2.933,0,0,1-1.266.254A2.425,2.425,0,0,1,9.782,13.924Zm5.476.486V8.7h3.289v.992H16.47v1.254H18.4v.993H16.47V13.41h2.078v1Z"
      transform="translate(0.377 0.001)"/>
  </g>
</svg>
