<svg xmlns="http://www.w3.org/2000/svg" width="188.187" height="53.929" viewBox="0 0 188.187 53.929" id="logo_login"><path d="M10.3,52.865V15.5h2.6V50.361H30.716v2.5Z" transform="translate(-10.107 -11.744)"/><path class="a" d="M10.293,52.858h.289V15.782H12.7V50.643H30.42v1.926H10.293v.289h0v.193H30.9V50.161H13.182V15.3H10.1V53.05h.193Z" transform="translate(-10.1 -11.737)"/><path d="M60.361,39.253c0,4.526-1.059,8.089-3.274,10.593A11.491,11.491,0,0,1,48.034,53.7a11.981,11.981,0,0,1-6.452-1.733,11.41,11.41,0,0,1-4.237-5.008A18.81,18.81,0,0,1,35.9,39.349c0-4.526,1.059-8.089,3.274-10.593A11.423,11.423,0,0,1,48.227,25c3.852,0,6.837,1.252,8.956,3.852C59.3,31.26,60.361,34.823,60.361,39.253Zm-21.861,0c0,3.852.867,6.741,2.5,8.956a8.5,8.5,0,0,0,7.126,3.178,8.627,8.627,0,0,0,7.126-3.178c1.637-2.119,2.5-5.1,2.5-8.956s-.867-6.837-2.5-8.956a8.627,8.627,0,0,0-7.126-3.178A8.627,8.627,0,0,0,41,30.3C39.271,32.415,38.5,35.4,38.5,39.253Z" transform="translate(-11.054 -12.096)"/><path class="a" d="M60.346,39.242h-.193c0,4.526-1.059,7.993-3.274,10.5a11.02,11.02,0,0,1-8.86,3.756,11.1,11.1,0,0,1-6.26-1.733,10.955,10.955,0,0,1-4.141-4.911,18.023,18.023,0,0,1-1.445-7.512c0-4.526,1.059-7.993,3.274-10.4,2.119-2.5,5.1-3.659,8.86-3.756a10.822,10.822,0,0,1,8.763,3.756q3.178,3.756,3.178,10.4h.289c0-4.526-1.059-8.089-3.274-10.689A11.458,11.458,0,0,0,48.116,24.7a11.723,11.723,0,0,0-9.245,3.852c-2.215,2.6-3.371,6.163-3.371,10.786a17.759,17.759,0,0,0,1.541,7.7,12.147,12.147,0,0,0,4.334,5.2,12.378,12.378,0,0,0,6.549,1.83c3.948,0,7.03-1.252,9.245-3.948,2.215-2.6,3.371-6.163,3.371-10.786h-.193Zm-21.86,0h-.193c0,3.852.867,6.837,2.6,9.052a8.684,8.684,0,0,0,7.319,3.274,8.806,8.806,0,0,0,7.319-3.274c1.733-2.215,2.6-5.2,2.6-9.052s-.867-6.934-2.6-9.052a8.806,8.806,0,0,0-7.319-3.274,8.806,8.806,0,0,0-7.319,3.274c-1.733,2.119-2.5,5.2-2.5,9.052h.289c0-3.852.867-6.741,2.408-8.763A8.322,8.322,0,0,1,48.019,27.4a8.448,8.448,0,0,1,6.934,3.082c1.637,2.022,2.5,5.008,2.5,8.763s-.867,6.741-2.5,8.763a8.184,8.184,0,0,1-6.934,3.082,8.448,8.448,0,0,1-6.934-3.082c-1.637-2.119-2.5-5.008-2.5-8.763h-.1Z" transform="translate(-11.039 -12.084)"/><path d="M90.831,25.382v1.733l-5.778.385a9.885,9.885,0,0,1,2.311,6.26,8.162,8.162,0,0,1-2.7,6.452,10.037,10.037,0,0,1-7.126,2.5,16.359,16.359,0,0,1-2.7-.193,7.482,7.482,0,0,0-2.311,1.83,3.781,3.781,0,0,0-.77,2.408,2.039,2.039,0,0,0,.963,1.926,7.292,7.292,0,0,0,3.371.578h4.815c2.985,0,5.3.578,6.934,1.83a6.27,6.27,0,0,1,2.408,5.393,7.542,7.542,0,0,1-3.563,6.741c-2.408,1.637-5.778,2.408-10.112,2.408q-5.2,0-8.089-2.022A6.41,6.41,0,0,1,65.6,58.028a6.635,6.635,0,0,1,1.733-4.719,9.339,9.339,0,0,1,4.815-2.6,4.731,4.731,0,0,1-2.022-1.541,3.858,3.858,0,0,1-.77-2.215c0-1.83,1.156-3.467,3.563-4.911a7.976,7.976,0,0,1-3.756-3.082,10.324,10.324,0,0,1-1.252-4.911,8.7,8.7,0,0,1,2.6-6.645,10.036,10.036,0,0,1,7.126-2.5,12.075,12.075,0,0,1,4.237.578h8.956ZM68.393,57.835c0,3.852,2.793,5.682,8.475,5.682,7.319,0,10.882-2.311,10.882-6.934a4.117,4.117,0,0,0-1.733-3.659c-1.156-.77-2.985-1.156-5.586-1.156H75.9Q68.393,51.913,68.393,57.835Zm2.119-23.787a6.6,6.6,0,0,0,1.926,5.008,7.709,7.709,0,0,0,5.2,1.733,7.468,7.468,0,0,0,5.3-1.733,6.631,6.631,0,0,0,1.83-5.1,6.84,6.84,0,0,0-1.926-5.3,7.63,7.63,0,0,0-5.3-1.733,7.053,7.053,0,0,0-5.2,1.926A6.859,6.859,0,0,0,70.511,34.049Z" transform="translate(-12.211 -12.092)"/><path class="a" d="M90.824,25.37h-.193v1.541L84.66,27.3l.289.385a9.341,9.341,0,0,1,2.215,6.163,8.348,8.348,0,0,1-2.6,6.356,9.746,9.746,0,0,1-7.03,2.408,14.135,14.135,0,0,1-2.6-.193h-.193a7.081,7.081,0,0,0-2.408,1.926,3.892,3.892,0,0,0-.867,2.408,2.213,2.213,0,0,0,1.156,2.119,6.7,6.7,0,0,0,3.467.674H80.9c2.985,0,5.2.578,6.741,1.733a6.086,6.086,0,0,1,2.311,5.2,7.346,7.346,0,0,1-3.467,6.549c-2.311,1.541-5.682,2.311-10.015,2.311a14.409,14.409,0,0,1-7.993-1.926,6.334,6.334,0,0,1-2.793-5.393,6.561,6.561,0,0,1,1.733-4.622,8.929,8.929,0,0,1,4.719-2.5l.77-.193-.674-.289a5.955,5.955,0,0,1-1.926-1.445,3.282,3.282,0,0,1-.674-2.119c0-1.733,1.059-3.274,3.467-4.719l.385-.289-.481-.193a7.646,7.646,0,0,1-3.659-3.082A8.721,8.721,0,0,1,68,33.845,8.631,8.631,0,0,1,70.6,27.3a9.659,9.659,0,0,1,6.934-2.408,14.71,14.71,0,0,1,4.141.482h9.149v-.193h-8.86v.193l.1-.193a13.07,13.07,0,0,0-4.334-.578,10.152,10.152,0,0,0-7.319,2.6,9,9,0,0,0-2.7,6.837,9.739,9.739,0,0,0,1.348,5.008,8.315,8.315,0,0,0,3.852,3.178l.1-.193-.1-.193c-2.408,1.445-3.659,3.178-3.659,5.1a4.214,4.214,0,0,0,.77,2.408,5.229,5.229,0,0,0,2.119,1.637l.1-.193-.1-.193a9.1,9.1,0,0,0-4.911,2.7,6.916,6.916,0,0,0-1.83,4.911,6.494,6.494,0,0,0,2.985,5.778c1.926,1.348,4.719,2.022,8.282,2.022,4.43,0,7.9-.77,10.3-2.408a7.945,7.945,0,0,0,3.659-6.934,6.707,6.707,0,0,0-2.5-5.585c-1.637-1.252-4.045-1.83-7.03-1.83H76.282a6.585,6.585,0,0,1-3.274-.578,1.841,1.841,0,0,1-.867-1.733,3.579,3.579,0,0,1,.77-2.119,7.248,7.248,0,0,1,2.215-1.83l-.1-.193v.193a16.359,16.359,0,0,0,2.7.193,10.152,10.152,0,0,0,7.319-2.6,8.385,8.385,0,0,0,2.7-6.645,10.2,10.2,0,0,0-2.311-6.452l-.193.193v.193l5.971-.385V25.274h-.193v.1ZM68.385,57.824h-.193a5.355,5.355,0,0,0,2.215,4.526c1.445.963,3.659,1.445,6.549,1.445,3.659,0,6.452-.578,8.282-1.733a5.981,5.981,0,0,0,2.889-5.393,4.2,4.2,0,0,0-1.83-3.852,10.9,10.9,0,0,0-5.682-1.156H76.09c-2.6,0-4.526.482-5.874,1.541a5.6,5.6,0,0,0-2.022,4.719h.385a5.1,5.1,0,0,1,1.83-4.334,9,9,0,0,1,5.586-1.445h4.526A10.569,10.569,0,0,1,85.912,53.2a3.815,3.815,0,0,1,1.637,3.467,5.615,5.615,0,0,1-2.6,5.008q-2.6,1.733-8.089,1.733a11.848,11.848,0,0,1-6.26-1.348,4.465,4.465,0,0,1-2.022-4.045h-.193ZM70.5,34.038h-.193a6.747,6.747,0,0,0,2.022,5.2,7.638,7.638,0,0,0,5.393,1.83,7.572,7.572,0,0,0,5.489-1.83,7.134,7.134,0,0,0,1.926-5.3,7.126,7.126,0,0,0-2.022-5.489,8.821,8.821,0,0,0-10.882.1,7.365,7.365,0,0,0-1.926,5.489H70.7A6.337,6.337,0,0,1,77.534,27.1a7.375,7.375,0,0,1,5.2,1.733c1.252,1.156,1.83,2.793,1.83,5.1a6.352,6.352,0,0,1-1.733,4.911,7.063,7.063,0,0,1-5.2,1.733,7.286,7.286,0,0,1-5.1-1.733,6.108,6.108,0,0,1-1.83-4.815Z" transform="translate(-12.204 -12.081)"/><path d="M97.3,17.308c0-1.637.578-2.408,1.637-2.408a1.4,1.4,0,0,1,1.252.674,3.19,3.19,0,0,1,.481,1.83,3.426,3.426,0,0,1-.481,1.83,1.431,1.431,0,0,1-1.252.578C97.878,19.811,97.3,19.041,97.3,17.308Zm2.889,35.535h-2.5V25.012h2.5Z" transform="translate(-13.406 -11.722)"/><path class="a" d="M97.293,17.3h.193a2.9,2.9,0,0,1,.385-1.733c.193-.385.482-.482.963-.482a1.208,1.208,0,0,1,1.059.578h0a2.755,2.755,0,0,1,.385,1.637,3.4,3.4,0,0,1-.385,1.637,1.208,1.208,0,0,1-1.059.578,1.063,1.063,0,0,1-.963-.482,3.846,3.846,0,0,1-.385-1.733H97.1a3.161,3.161,0,0,0,.482,2.022,1.584,1.584,0,0,0,1.445.77,1.7,1.7,0,0,0,1.445-.77,4.093,4.093,0,0,0,0-3.852h0a1.7,1.7,0,0,0-1.445-.77,2.048,2.048,0,0,0-1.445.674A3.793,3.793,0,0,0,97.1,17.3Zm2.889,35.535v-.289H97.967V25.293h2.022V52.835h.193v0h.193V24.812H97.389V53.028h2.985v-.193Z" transform="translate(-13.399 -11.715)"/><path d="M129.357,53.213V35.2q0-4.189-1.733-6.067c-1.156-1.252-2.985-1.926-5.489-1.926-3.274,0-5.778.867-7.319,2.5S112.5,34.145,112.5,37.9V53.213H110V25.382h2.119l.481,3.852h.193c1.83-2.889,5.008-4.334,9.63-4.334,6.26,0,9.438,3.371,9.438,10.112v18.1h-2.5Z" transform="translate(-13.898 -12.092)"/><path class="a" d="M129.346,53.2h.193V35.193c0-2.793-.578-4.911-1.83-6.26s-3.178-2.022-5.682-2.022q-5.056,0-7.512,2.6c-1.637,1.733-2.408,4.526-2.408,8.282V52.913h-2.022V25.659h1.733l.481,3.852h.482l.1-.1c1.733-2.793,4.815-4.237,9.438-4.237,3.082,0,5.393.867,6.934,2.5s2.311,4.141,2.311,7.415V52.913h-2.215V53.2h0v.193h2.7V35c0-3.371-.77-5.971-2.408-7.8q-2.456-2.6-7.223-2.6c-4.622,0-7.993,1.445-9.823,4.43l.193.1v-.193h-.193v.193h.193l-.482-4.045h-2.6V53.3h2.985V37.89c0-3.756.77-6.356,2.215-7.993s3.852-2.408,7.126-2.408c2.408,0,4.141.578,5.3,1.83,1.156,1.156,1.733,3.178,1.733,5.971v18.2h.193V53.2Z" transform="translate(-13.887 -12.081)"/><path d="M160.474,29.038V24.03l26.579-9.149a1.584,1.584,0,0,0-1.059-2.985L158.259,21.43a1.562,1.562,0,0,0-1.059,1.541v6.163a1.546,1.546,0,0,0,1.637,1.541A1.623,1.623,0,0,0,160.474,29.038Z" transform="translate(-15.72 -11.607)"/><path class="a" d="M160.467,29.031h.193V24.216l26.483-9.052a1.851,1.851,0,0,0,1.252-1.733,1.221,1.221,0,0,0-.1-.578,1.851,1.851,0,0,0-1.733-1.252,1.221,1.221,0,0,0-.578.1L158.252,21.23A1.851,1.851,0,0,0,157,22.964h0v6.163a1.894,1.894,0,0,0,1.83,1.83h0a1.894,1.894,0,0,0,1.83-1.83h0l-.193-.1h-.193a1.317,1.317,0,0,1-1.348,1.348h0a1.317,1.317,0,0,1-1.348-1.348V22.867h0a1.371,1.371,0,0,1,.867-1.252l27.735-9.534a.868.868,0,0,1,.481-.1,1.371,1.371,0,0,1,1.252.867.868.868,0,0,1,.1.482,1.371,1.371,0,0,1-.867,1.252L160.371,23.83v5.2Z" transform="translate(-15.712 -11.6)"/><path d="M177.72,18.775l22.727,6.549.1,23.883L187.831,60.281l-27.253-10.5V45.836a1.546,1.546,0,0,0-1.637-1.541,1.493,1.493,0,0,0-1.541,1.637V50.94a1.447,1.447,0,0,0,1.059,1.445l29.179,11.171a1.682,1.682,0,0,0,1.637-.289L203.24,51.132a1.553,1.553,0,0,0,.578-1.252l-.1-25.809a1.648,1.648,0,0,0-1.156-1.541L178.779,15.6a1.455,1.455,0,0,0-1.926,1.059C176.66,17.523,176.853,18.582,177.72,18.775Z" transform="translate(-15.727 -11.745)"/><path class="a" d="M177.709,18.774l-.1.193,22.535,6.549.1,23.594L187.724,59.991l-26.964-10.4V45.835a1.894,1.894,0,0,0-1.83-1.83h0v0a1.894,1.894,0,0,0-1.83,1.83h0v5.008a1.9,1.9,0,0,0,1.156,1.733l29.179,11.171a1.639,1.639,0,0,0,.674.1,1.6,1.6,0,0,0,1.156-.482l13.964-11.941a2.023,2.023,0,0,0,.674-1.348h0l-.1-25.809a1.85,1.85,0,0,0-1.348-1.733L178.672,15.6a1.047,1.047,0,0,0-.481-.1,1.741,1.741,0,0,0-1.734,1.348,1.048,1.048,0,0,0-.1.482,1.741,1.741,0,0,0,1.348,1.733v-.289l.1-.193a1.33,1.33,0,0,1-.963-1.252.579.579,0,0,1,.1-.385,1.33,1.33,0,0,1,1.252-.963.579.579,0,0,1,.385.1l23.787,6.934a1.33,1.33,0,0,1,.963,1.252l.1,25.809h0a1.547,1.547,0,0,1-.481,1.059L188.976,63.169a1.553,1.553,0,0,1-.867.289.868.868,0,0,1-.482-.1L158.448,52.191a1.371,1.371,0,0,1-.867-1.252V45.931h0a1.316,1.316,0,0,1,1.348-1.348h0a1.316,1.316,0,0,1,1.348,1.348v4.141L187.82,60.666l12.9-11.171-.1-24.172L177.8,18.678Z" transform="translate(-15.716 -11.744)"/><path class="b" d="M175.281,33l5.1,5.1-5.1,5.489a1.568,1.568,0,0,0,2.311,2.119l6.163-6.645a1.511,1.511,0,0,0,0-2.119l-6.163-6.067a1.631,1.631,0,0,0-2.215,0A1.309,1.309,0,0,0,175.281,33Z" transform="translate(-16.37 -12.297)"/><path class="b" d="M175.278,33h0l4.911,5.1-5.008,5.393a1.777,1.777,0,0,0-.481,1.156,1.7,1.7,0,0,0,.578,1.252,1.777,1.777,0,0,0,1.156.482,1.7,1.7,0,0,0,1.252-.578l6.163-6.645a1.628,1.628,0,0,0,0-2.311l-6.163-6.067a1.637,1.637,0,0,0-2.793,1.156A.736.736,0,0,0,175.278,33h0a2.511,2.511,0,0,1-.289-1.059,1.117,1.117,0,0,1,.385-.963,1.38,1.38,0,0,1,.963-.385,1.117,1.117,0,0,1,.963.385l6.163,6.067a1.38,1.38,0,0,1,.385.963,1.236,1.236,0,0,1-.385.963L177.3,45.612a1.547,1.547,0,0,1-1.059.481,1.236,1.236,0,0,1-.963-.385,1.547,1.547,0,0,1-.482-1.059,1.237,1.237,0,0,1,.385-.963l5.2-5.586-5.1-5.1Z" transform="translate(-16.367 -12.292)"/><path class="b" d="M181.079,37H158.641a1.541,1.541,0,0,0,0,3.082h22.438a1.541,1.541,0,1,0,0-3.082" transform="translate(-15.716 -12.539)"/><path class="b" d="M181.075,36.8H158.637a1.637,1.637,0,0,0,0,3.274h22.438a1.637,1.637,0,1,0,0-3.274v.193a1.445,1.445,0,0,1,0,2.889H158.637a1.445,1.445,0,0,1,0-2.889h22.438V36.8Z" transform="translate(-15.712 -12.532)"/><path d="M10.3,52.865V15.5h2.6V50.361H30.716v2.5Z" transform="translate(-10.107 -11.744)"/><path class="a" d="M10.293,52.858h.289V15.782H12.7V50.643H30.42v1.926H10.293v.289h0v.193H30.9V50.161H13.182V15.3H10.1V53.05h.193Z" transform="translate(-10.1 -11.737)"/><path d="M60.361,39.253c0,4.526-1.059,8.089-3.274,10.593A11.491,11.491,0,0,1,48.034,53.7a11.981,11.981,0,0,1-6.452-1.733,11.41,11.41,0,0,1-4.237-5.008A18.81,18.81,0,0,1,35.9,39.349c0-4.526,1.059-8.089,3.274-10.593A11.423,11.423,0,0,1,48.227,25c3.852,0,6.837,1.252,8.956,3.852C59.3,31.26,60.361,34.823,60.361,39.253Zm-21.861,0c0,3.852.867,6.741,2.5,8.956a8.5,8.5,0,0,0,7.126,3.178,8.627,8.627,0,0,0,7.126-3.178c1.637-2.119,2.5-5.1,2.5-8.956s-.867-6.837-2.5-8.956a8.627,8.627,0,0,0-7.126-3.178A8.627,8.627,0,0,0,41,30.3C39.271,32.415,38.5,35.4,38.5,39.253Z" transform="translate(-11.054 -12.096)"/><path class="a" d="M60.346,39.242h-.193c0,4.526-1.059,7.993-3.274,10.5a11.02,11.02,0,0,1-8.86,3.756,11.1,11.1,0,0,1-6.26-1.733,10.955,10.955,0,0,1-4.141-4.911,18.023,18.023,0,0,1-1.445-7.512c0-4.526,1.059-7.993,3.274-10.4,2.119-2.5,5.1-3.659,8.86-3.756a10.822,10.822,0,0,1,8.763,3.756q3.178,3.756,3.178,10.4h.289c0-4.526-1.059-8.089-3.274-10.689A11.458,11.458,0,0,0,48.116,24.7a11.723,11.723,0,0,0-9.245,3.852c-2.215,2.6-3.371,6.163-3.371,10.786a17.759,17.759,0,0,0,1.541,7.7,12.147,12.147,0,0,0,4.334,5.2,12.378,12.378,0,0,0,6.549,1.83c3.948,0,7.03-1.252,9.245-3.948,2.215-2.6,3.371-6.163,3.371-10.786h-.193Zm-21.86,0h-.193c0,3.852.867,6.837,2.6,9.052a8.684,8.684,0,0,0,7.319,3.274,8.806,8.806,0,0,0,7.319-3.274c1.733-2.215,2.6-5.2,2.6-9.052s-.867-6.934-2.6-9.052a8.806,8.806,0,0,0-7.319-3.274,8.806,8.806,0,0,0-7.319,3.274c-1.733,2.119-2.5,5.2-2.5,9.052h.289c0-3.852.867-6.741,2.408-8.763A8.322,8.322,0,0,1,48.019,27.4a8.448,8.448,0,0,1,6.934,3.082c1.637,2.022,2.5,5.008,2.5,8.763s-.867,6.741-2.5,8.763a8.184,8.184,0,0,1-6.934,3.082,8.448,8.448,0,0,1-6.934-3.082c-1.637-2.119-2.5-5.008-2.5-8.763h-.1Z" transform="translate(-11.039 -12.084)"/><path d="M90.831,25.382v1.733l-5.778.385a9.885,9.885,0,0,1,2.311,6.26,8.162,8.162,0,0,1-2.7,6.452,10.037,10.037,0,0,1-7.126,2.5,16.359,16.359,0,0,1-2.7-.193,7.482,7.482,0,0,0-2.311,1.83,3.781,3.781,0,0,0-.77,2.408,2.039,2.039,0,0,0,.963,1.926,7.292,7.292,0,0,0,3.371.578h4.815c2.985,0,5.3.578,6.934,1.83a6.27,6.27,0,0,1,2.408,5.393,7.542,7.542,0,0,1-3.563,6.741c-2.408,1.637-5.778,2.408-10.112,2.408q-5.2,0-8.089-2.022A6.41,6.41,0,0,1,65.6,58.028a6.635,6.635,0,0,1,1.733-4.719,9.339,9.339,0,0,1,4.815-2.6,4.731,4.731,0,0,1-2.022-1.541,3.858,3.858,0,0,1-.77-2.215c0-1.83,1.156-3.467,3.563-4.911a7.976,7.976,0,0,1-3.756-3.082,10.324,10.324,0,0,1-1.252-4.911,8.7,8.7,0,0,1,2.6-6.645,10.036,10.036,0,0,1,7.126-2.5,12.075,12.075,0,0,1,4.237.578h8.956ZM68.393,57.835c0,3.852,2.793,5.682,8.475,5.682,7.319,0,10.882-2.311,10.882-6.934a4.117,4.117,0,0,0-1.733-3.659c-1.156-.77-2.985-1.156-5.586-1.156H75.9Q68.393,51.913,68.393,57.835Zm2.119-23.787a6.6,6.6,0,0,0,1.926,5.008,7.709,7.709,0,0,0,5.2,1.733,7.468,7.468,0,0,0,5.3-1.733,6.631,6.631,0,0,0,1.83-5.1,6.84,6.84,0,0,0-1.926-5.3,7.63,7.63,0,0,0-5.3-1.733,7.053,7.053,0,0,0-5.2,1.926A6.859,6.859,0,0,0,70.511,34.049Z" transform="translate(-12.211 -12.092)"/><path class="a" d="M90.824,25.37h-.193v1.541L84.66,27.3l.289.385a9.341,9.341,0,0,1,2.215,6.163,8.348,8.348,0,0,1-2.6,6.356,9.746,9.746,0,0,1-7.03,2.408,14.135,14.135,0,0,1-2.6-.193h-.193a7.081,7.081,0,0,0-2.408,1.926,3.892,3.892,0,0,0-.867,2.408,2.213,2.213,0,0,0,1.156,2.119,6.7,6.7,0,0,0,3.467.674H80.9c2.985,0,5.2.578,6.741,1.733a6.086,6.086,0,0,1,2.311,5.2,7.346,7.346,0,0,1-3.467,6.549c-2.311,1.541-5.682,2.311-10.015,2.311a14.409,14.409,0,0,1-7.993-1.926,6.334,6.334,0,0,1-2.793-5.393,6.561,6.561,0,0,1,1.733-4.622,8.929,8.929,0,0,1,4.719-2.5l.77-.193-.674-.289a5.955,5.955,0,0,1-1.926-1.445,3.282,3.282,0,0,1-.674-2.119c0-1.733,1.059-3.274,3.467-4.719l.385-.289-.481-.193a7.646,7.646,0,0,1-3.659-3.082A8.721,8.721,0,0,1,68,33.845,8.631,8.631,0,0,1,70.6,27.3a9.659,9.659,0,0,1,6.934-2.408,14.71,14.71,0,0,1,4.141.482h9.149v-.193h-8.86v.193l.1-.193a13.07,13.07,0,0,0-4.334-.578,10.152,10.152,0,0,0-7.319,2.6,9,9,0,0,0-2.7,6.837,9.739,9.739,0,0,0,1.348,5.008,8.315,8.315,0,0,0,3.852,3.178l.1-.193-.1-.193c-2.408,1.445-3.659,3.178-3.659,5.1a4.214,4.214,0,0,0,.77,2.408,5.229,5.229,0,0,0,2.119,1.637l.1-.193-.1-.193a9.1,9.1,0,0,0-4.911,2.7,6.916,6.916,0,0,0-1.83,4.911,6.494,6.494,0,0,0,2.985,5.778c1.926,1.348,4.719,2.022,8.282,2.022,4.43,0,7.9-.77,10.3-2.408a7.945,7.945,0,0,0,3.659-6.934,6.707,6.707,0,0,0-2.5-5.585c-1.637-1.252-4.045-1.83-7.03-1.83H76.282a6.585,6.585,0,0,1-3.274-.578,1.841,1.841,0,0,1-.867-1.733,3.579,3.579,0,0,1,.77-2.119,7.248,7.248,0,0,1,2.215-1.83l-.1-.193v.193a16.359,16.359,0,0,0,2.7.193,10.152,10.152,0,0,0,7.319-2.6,8.385,8.385,0,0,0,2.7-6.645,10.2,10.2,0,0,0-2.311-6.452l-.193.193v.193l5.971-.385V25.274h-.193v.1ZM68.385,57.824h-.193a5.355,5.355,0,0,0,2.215,4.526c1.445.963,3.659,1.445,6.549,1.445,3.659,0,6.452-.578,8.282-1.733a5.981,5.981,0,0,0,2.889-5.393,4.2,4.2,0,0,0-1.83-3.852,10.9,10.9,0,0,0-5.682-1.156H76.09c-2.6,0-4.526.482-5.874,1.541a5.6,5.6,0,0,0-2.022,4.719h.385a5.1,5.1,0,0,1,1.83-4.334,9,9,0,0,1,5.586-1.445h4.526A10.569,10.569,0,0,1,85.912,53.2a3.815,3.815,0,0,1,1.637,3.467,5.615,5.615,0,0,1-2.6,5.008q-2.6,1.733-8.089,1.733a11.848,11.848,0,0,1-6.26-1.348,4.465,4.465,0,0,1-2.022-4.045h-.193ZM70.5,34.038h-.193a6.747,6.747,0,0,0,2.022,5.2,7.638,7.638,0,0,0,5.393,1.83,7.572,7.572,0,0,0,5.489-1.83,7.134,7.134,0,0,0,1.926-5.3,7.126,7.126,0,0,0-2.022-5.489,8.821,8.821,0,0,0-10.882.1,7.365,7.365,0,0,0-1.926,5.489H70.7A6.337,6.337,0,0,1,77.534,27.1a7.375,7.375,0,0,1,5.2,1.733c1.252,1.156,1.83,2.793,1.83,5.1a6.352,6.352,0,0,1-1.733,4.911,7.063,7.063,0,0,1-5.2,1.733,7.286,7.286,0,0,1-5.1-1.733,6.108,6.108,0,0,1-1.83-4.815Z" transform="translate(-12.204 -12.081)"/><path d="M97.3,17.308c0-1.637.578-2.408,1.637-2.408a1.4,1.4,0,0,1,1.252.674,3.19,3.19,0,0,1,.481,1.83,3.426,3.426,0,0,1-.481,1.83,1.431,1.431,0,0,1-1.252.578C97.878,19.811,97.3,19.041,97.3,17.308Zm2.889,35.535h-2.5V25.012h2.5Z" transform="translate(-13.406 -11.722)"/><path class="a" d="M97.293,17.3h.193a2.9,2.9,0,0,1,.385-1.733c.193-.385.482-.482.963-.482a1.208,1.208,0,0,1,1.059.578h0a2.755,2.755,0,0,1,.385,1.637,3.4,3.4,0,0,1-.385,1.637,1.208,1.208,0,0,1-1.059.578,1.063,1.063,0,0,1-.963-.482,3.846,3.846,0,0,1-.385-1.733H97.1a3.161,3.161,0,0,0,.482,2.022,1.584,1.584,0,0,0,1.445.77,1.7,1.7,0,0,0,1.445-.77,4.093,4.093,0,0,0,0-3.852h0a1.7,1.7,0,0,0-1.445-.77,2.048,2.048,0,0,0-1.445.674A3.793,3.793,0,0,0,97.1,17.3Zm2.889,35.535v-.289H97.967V25.293h2.022V52.835h.193v0h.193V24.812H97.389V53.028h2.985v-.193Z" transform="translate(-13.399 -11.715)"/><path d="M129.357,53.213V35.2q0-4.189-1.733-6.067c-1.156-1.252-2.985-1.926-5.489-1.926-3.274,0-5.778.867-7.319,2.5S112.5,34.145,112.5,37.9V53.213H110V25.382h2.119l.481,3.852h.193c1.83-2.889,5.008-4.334,9.63-4.334,6.26,0,9.438,3.371,9.438,10.112v18.1h-2.5Z" transform="translate(-13.898 -12.092)"/><path class="a" d="M129.346,53.2h.193V35.193c0-2.793-.578-4.911-1.83-6.26s-3.178-2.022-5.682-2.022q-5.056,0-7.512,2.6c-1.637,1.733-2.408,4.526-2.408,8.282V52.913h-2.022V25.659h1.733l.481,3.852h.482l.1-.1c1.733-2.793,4.815-4.237,9.438-4.237,3.082,0,5.393.867,6.934,2.5s2.311,4.141,2.311,7.415V52.913h-2.215V53.2h0v.193h2.7V35c0-3.371-.77-5.971-2.408-7.8q-2.456-2.6-7.223-2.6c-4.622,0-7.993,1.445-9.823,4.43l.193.1v-.193h-.193v.193h.193l-.482-4.045h-2.6V53.3h2.985V37.89c0-3.756.77-6.356,2.215-7.993s3.852-2.408,7.126-2.408c2.408,0,4.141.578,5.3,1.83,1.156,1.156,1.733,3.178,1.733,5.971v18.2h.193V53.2Z" transform="translate(-13.887 -12.081)"/><path d="M10.9,52.865V15.5h2.6V50.361H31.22v2.5Z" transform="translate(-10.13 -11.744)"/><path d="M60.961,39.253c0,4.526-1.059,8.089-3.274,10.593A11.491,11.491,0,0,1,48.634,53.7a11.981,11.981,0,0,1-6.452-1.733,11.41,11.41,0,0,1-4.237-5.008A18.809,18.809,0,0,1,36.5,39.349c0-4.526,1.059-8.089,3.274-10.593A11.423,11.423,0,0,1,48.827,25c3.852,0,6.837,1.252,8.956,3.852C59.9,31.26,60.961,34.823,60.961,39.253ZM39,39.253c0,3.852.867,6.741,2.5,8.956a8.5,8.5,0,0,0,7.126,3.178,8.627,8.627,0,0,0,7.126-3.178c1.637-2.119,2.5-5.1,2.5-8.956s-.867-6.837-2.5-8.956a8.627,8.627,0,0,0-7.126-3.178A8.627,8.627,0,0,0,41.508,30.3C39.871,32.415,39,35.4,39,39.253Z" transform="translate(-11.076 -12.096)"/><path class="a" d="M60.946,39.242h-.193c0,4.526-1.059,7.993-3.274,10.5a11.02,11.02,0,0,1-8.86,3.756,11.1,11.1,0,0,1-6.26-1.733,10.955,10.955,0,0,1-4.141-4.911,18.023,18.023,0,0,1-1.445-7.512c0-4.526,1.059-7.993,3.274-10.4,2.119-2.5,5.1-3.659,8.86-3.756a10.822,10.822,0,0,1,8.763,3.756q3.178,3.756,3.178,10.4h.289c0-4.526-1.059-8.089-3.274-10.689A11.458,11.458,0,0,0,48.716,24.7a11.723,11.723,0,0,0-9.245,3.852c-2.215,2.6-3.371,6.163-3.371,10.786a17.759,17.759,0,0,0,1.541,7.7,12.147,12.147,0,0,0,4.334,5.2,12.378,12.378,0,0,0,6.549,1.83c3.948,0,7.03-1.252,9.245-3.948,2.215-2.6,3.371-6.163,3.371-10.786h-.193Zm-21.957,0H38.8c0,3.852.867,6.837,2.6,9.052a8.684,8.684,0,0,0,7.319,3.274,8.806,8.806,0,0,0,7.319-3.274c1.733-2.215,2.6-5.2,2.6-9.052s-.867-6.934-2.6-9.052a8.806,8.806,0,0,0-7.319-3.274A8.806,8.806,0,0,0,41.4,30.189c-1.733,2.119-2.5,5.2-2.5,9.052h.289c0-3.852.867-6.741,2.408-8.763A8.322,8.322,0,0,1,48.523,27.4a8.448,8.448,0,0,1,6.934,3.082c1.637,2.022,2.5,5.008,2.5,8.763s-.867,6.741-2.5,8.763a8.184,8.184,0,0,1-6.934,3.082,8.448,8.448,0,0,1-6.934-3.082c-1.637-2.119-2.5-5.008-2.5-8.763h-.1Z" transform="translate(-11.062 -12.084)"/><path d="M91.431,25.378v1.733l-5.778.385a9.885,9.885,0,0,1,2.311,6.26,8.162,8.162,0,0,1-2.7,6.452,10.036,10.036,0,0,1-7.126,2.5,16.359,16.359,0,0,1-2.7-.193,7.482,7.482,0,0,0-2.311,1.83,3.363,3.363,0,0,0-.77,2.311,2.039,2.039,0,0,0,.963,1.926,7.292,7.292,0,0,0,3.371.578h4.815c2.985,0,5.3.578,6.934,1.83a6.27,6.27,0,0,1,2.408,5.393,7.542,7.542,0,0,1-3.563,6.741c-2.408,1.637-5.778,2.408-10.112,2.408q-5.2,0-8.089-2.022A6.41,6.41,0,0,1,66.2,57.928a6.635,6.635,0,0,1,1.733-4.719,9.339,9.339,0,0,1,4.815-2.6,4.731,4.731,0,0,1-2.022-1.541,3.858,3.858,0,0,1-.77-2.215c0-1.83,1.156-3.467,3.563-4.911a7.975,7.975,0,0,1-3.756-3.082,9.392,9.392,0,0,1-1.348-4.911,8.7,8.7,0,0,1,2.6-6.645,10.036,10.036,0,0,1,7.126-2.5,12.075,12.075,0,0,1,4.237.578ZM68.9,57.831c0,3.852,2.793,5.682,8.475,5.682,7.319,0,10.882-2.311,10.882-6.934A4.117,4.117,0,0,0,86.52,52.92c-1.156-.77-2.985-1.156-5.586-1.156H76.6C71.5,51.861,68.9,53.883,68.9,57.831Zm2.119-23.787a6.6,6.6,0,0,0,1.926,5.008,7.709,7.709,0,0,0,5.2,1.733,7.468,7.468,0,0,0,5.3-1.733,6.631,6.631,0,0,0,1.83-5.1,6.84,6.84,0,0,0-1.926-5.3,7.063,7.063,0,0,0-5.2-1.733,7.053,7.053,0,0,0-5.2,1.926A6.9,6.9,0,0,0,71.015,34.045Z" transform="translate(-12.234 -12.088)"/><path class="a" d="M91.424,25.37h-.193v1.541L85.26,27.3l.289.385a9.341,9.341,0,0,1,2.215,6.163,8.348,8.348,0,0,1-2.6,6.356,9.746,9.746,0,0,1-7.03,2.408,14.136,14.136,0,0,1-2.6-.193h-.193a7.081,7.081,0,0,0-2.408,1.926,3.892,3.892,0,0,0-.867,2.408,2.213,2.213,0,0,0,1.156,2.119,6.7,6.7,0,0,0,3.467.674H81.5c2.985,0,5.2.578,6.741,1.733a6.086,6.086,0,0,1,2.311,5.2,7.346,7.346,0,0,1-3.467,6.549c-2.311,1.541-5.682,2.311-10.015,2.311a14.409,14.409,0,0,1-7.993-1.926,6.334,6.334,0,0,1-2.793-5.393,6.561,6.561,0,0,1,1.733-4.622,8.929,8.929,0,0,1,4.719-2.5l.77-.193-.674-.289a5.955,5.955,0,0,1-1.926-1.445,3.282,3.282,0,0,1-.674-2.119c0-1.733,1.059-3.274,3.467-4.719l.385-.289H73.7a7.646,7.646,0,0,1-3.659-3.082A8.721,8.721,0,0,1,68.7,34.038a8.631,8.631,0,0,1,2.6-6.549,9.659,9.659,0,0,1,6.934-2.408,14.71,14.71,0,0,1,4.141.482h8.956V25.37h.1v-.193h-8.86v.193l.1-.193a13.07,13.07,0,0,0-4.334-.578,10.152,10.152,0,0,0-7.319,2.6,9,9,0,0,0-2.7,6.837,9.739,9.739,0,0,0,1.348,5.008,8.315,8.315,0,0,0,3.852,3.178l.1-.193-.1-.193c-2.408,1.445-3.659,3.178-3.659,5.1a4.214,4.214,0,0,0,.77,2.408,5.229,5.229,0,0,0,2.119,1.637l.1-.193-.1-.289a9.094,9.094,0,0,0-4.911,2.7A6.916,6.916,0,0,0,66,58.113a6.494,6.494,0,0,0,2.985,5.778c1.926,1.348,4.719,2.022,8.282,2.022,4.43,0,7.9-.77,10.3-2.408a7.945,7.945,0,0,0,3.659-6.934,6.707,6.707,0,0,0-2.5-5.585c-1.637-1.252-4.045-1.83-7.03-1.83H76.882a6.584,6.584,0,0,1-3.274-.578,1.841,1.841,0,0,1-.867-1.733,3.579,3.579,0,0,1,.77-2.119,7.248,7.248,0,0,1,2.215-1.83l-.1-.193V42.9a16.359,16.359,0,0,0,2.7.193,10.152,10.152,0,0,0,7.319-2.6,8.385,8.385,0,0,0,2.7-6.645,10.2,10.2,0,0,0-2.311-6.452l-.193.193v.193l5.971-.385V25.178h-.193v.193ZM68.889,57.824H68.7a5.355,5.355,0,0,0,2.215,4.526c1.445.963,3.659,1.445,6.549,1.445,3.659,0,6.452-.578,8.282-1.733a5.981,5.981,0,0,0,2.889-5.393,4.2,4.2,0,0,0-1.83-3.852,10.9,10.9,0,0,0-5.682-1.156H76.593c-2.6,0-4.526.482-5.874,1.541A5.6,5.6,0,0,0,68.7,57.92h.385a5.1,5.1,0,0,1,1.83-4.334A9,9,0,0,1,76.5,52.142h4.526A10.569,10.569,0,0,1,86.416,53.2a3.815,3.815,0,0,1,1.637,3.467,5.615,5.615,0,0,1-2.6,5.008q-2.6,1.733-8.089,1.733a11.848,11.848,0,0,1-6.26-1.348,4.465,4.465,0,0,1-2.022-4.045h-.193Zm2.119-23.787h-.193a6.747,6.747,0,0,0,2.022,5.2,7.638,7.638,0,0,0,5.393,1.83,7.572,7.572,0,0,0,5.489-1.83,7.134,7.134,0,0,0,1.926-5.3,7.126,7.126,0,0,0-2.022-5.489,8.821,8.821,0,0,0-10.882.1,7.365,7.365,0,0,0-1.926,5.489H71.2A6.337,6.337,0,0,1,78.038,27.1a7.375,7.375,0,0,1,5.2,1.733c1.252,1.156,1.83,2.793,1.83,5.1a6.352,6.352,0,0,1-1.733,4.911,7.063,7.063,0,0,1-5.2,1.733,7.286,7.286,0,0,1-5.1-1.733,6.108,6.108,0,0,1-1.83-4.815Z" transform="translate(-12.227 -12.081)"/><path d="M97.9,17.308c0-1.637.578-2.408,1.637-2.408a1.4,1.4,0,0,1,1.252.674,3.19,3.19,0,0,1,.481,1.83,3.426,3.426,0,0,1-.481,1.83,1.306,1.306,0,0,1-1.252.674C98.478,19.811,97.9,19.041,97.9,17.308Zm2.889,35.535h-2.5V25.012h2.5Z" transform="translate(-13.429 -11.722)"/><path class="a" d="M97.893,17.3h.193a2.9,2.9,0,0,1,.385-1.733c.193-.385.482-.482.963-.482a1.208,1.208,0,0,1,1.059.578,2.756,2.756,0,0,1,.385,1.637,3.4,3.4,0,0,1-.385,1.637,1.208,1.208,0,0,1-1.059.578,1.063,1.063,0,0,1-.963-.482,3.846,3.846,0,0,1-.385-1.733H97.7a3.161,3.161,0,0,0,.481,2.022,1.584,1.584,0,0,0,1.445.77,1.7,1.7,0,0,0,1.445-.77,4.093,4.093,0,0,0,0-3.852,1.7,1.7,0,0,0-1.445-.77,2.048,2.048,0,0,0-1.445.674A3.793,3.793,0,0,0,97.7,17.3Zm2.889,35.535v-.289H98.47V25.293h2.022V52.835h.289v0h.193V24.812H97.989V53.028h2.985v-.193Z" transform="translate(-13.422 -11.715)"/><path d="M129.857,53.213V35.2q0-4.189-1.733-6.067c-1.156-1.252-2.985-1.926-5.489-1.926-3.274,0-5.778.867-7.319,2.5S113,34.145,113,37.9V53.213h-2.5V25.382h2.119l.482,3.852h.193c1.83-2.889,5.008-4.334,9.63-4.334,6.26,0,9.438,3.371,9.438,10.112v18.1h-2.5Z" transform="translate(-13.917 -12.092)"/><path class="a" d="M129.846,53.2h.193V35.193c0-2.793-.578-4.911-1.83-6.26s-3.178-2.022-5.682-2.022q-5.056,0-7.512,2.6c-1.637,1.733-2.408,4.526-2.408,8.282V52.913h-2.022V25.659h1.733l.482,3.852h.481l.1-.1c1.733-2.793,4.815-4.237,9.438-4.237,3.082,0,5.393.867,6.934,2.5s2.311,4.141,2.311,7.415V52.913h-2.215V53.2h0v.193h2.7V35c0-3.371-.77-5.971-2.408-7.8q-2.456-2.6-7.223-2.6c-4.622,0-7.993,1.445-9.823,4.43l.193.1v-.193h-.193v.193h.193l-.481-4.045h-2.6V53.3h2.985V37.89c0-3.756.77-6.356,2.215-7.993s3.852-2.408,7.126-2.408c2.408,0,4.141.578,5.3,1.83,1.156,1.156,1.733,3.178,1.733,5.971v18.2h.193V53.2Z" transform="translate(-13.906 -12.081)"/></svg>
